# xmcd
#
# Track frame offsets:
#	150
#	32096
#	49433
#	65110
#	90287
#	108129
#	124433
#	141663
#	164131
#	186953
#	200759
#
# Disc length: 2887 seconds
# Revision: 0
# Processed by: cddbd v1.5.2PL0 Copyright (c) Steve Scherf et al.
# Submitted via: dBpowerAMP V12.0
#
DISCID=b00b450b
DTITLE=Lightnin' Hopkins - Free Form Patterns
DYEAR=2014
DGENRE=Blues
TTITLE0=Mr. Charlie
TTITLE1=Give me time to think
TTITLE2=Fox chase
TTITLE3=Mr. Dittas' grocery store
TTITLE4=Open up your door
TTITLE5=Baby child
TTITLE6=Cookings done
TTITLE7=Got her letter this morning
TTITLE8=Rain falling
TTITLE9=Mini skirt
TTITLE10=Black ghost  [Bonus track]
EXTD=
EXTT0=
EXTT1=
EXTT2=
EXTT3=
EXTT4=
EXTT5=
EXTT6=
EXTT7=
EXTT8=
EXTT9=
EXTT10=
PLAYORDER=
